<?xml version="1.0" standalone="no"?>
<!DOCTYPE svg PUBLIC "-//W3C//DTD SVG 1.1//EN"
"http://www.w3.org/Graphics/SVG/1.1/DTD/svg11.dtd">

<svg width="576" height="124" view_box="0 0 576 124"
xmlns="http://www.w3.org/2000/svg"
xmlns:link="http://www.w3.org/1999/xlink">\n\n<desc>Généré par Mocodo 2.3.8 le Tue, 29 Sep 2020 21:24:52</desc>

<rect id="frame" x="0" y="0" width="576" height="124" fill="none" stroke="none" stroke-width="0"/>

<!-- Association COMPOSER -->
<line x1="51" y1="62" x2="167" y2="62" stroke="#000000" stroke-width="1"/>
<text x="98" y="79.0" fill="#000000" font-family="Verdana" font-size="12">3,3</text>
<line x1="277" y1="62" x2="167" y2="62" stroke="#000000" stroke-width="1"/>
<text x="214" y="79.0" fill="#000000" font-family="Verdana" font-size="12">0,N</text>
<g id="association-COMPOSER">
	<path d="M 195 36 a 14 14 90 0 1 14 14 V 62 h -84 V 50 a 14 14 90 0 1 14 -14" fill="#FFFFFF" stroke="#FFFFFF" stroke-width="0"/>
	<path d="M 209 62.0 v 12 a 14 14 90 0 1 -14 14 H 139 a 14 14 90 0 1 -14 -14 V 62.0 H 84" fill="#FFFFFF" stroke="#FFFFFF" stroke-width="0"/>
	<rect x="125" y="36" width="84" height="52" fill="none" rx="14" stroke="#000000" stroke-width="1.5"/>
	<line x1="125" y1="62" x2="209" y2="62" stroke="#000000" stroke-width="1"/>
	<text x="132" y="54.6" fill="#000000" font-family="Trebuchet MS" font-size="14">COMPOSER</text>
</g>

<!-- Association PREFERER -->
<line x1="277" y1="62" x2="385" y2="62" stroke="#000000" stroke-width="1"/>
<text x="318" y="79.0" fill="#000000" font-family="Verdana" font-size="12">0,N</text>
<line x1="512" y1="62" x2="385" y2="62" stroke="#000000" stroke-width="1"/>
<text x="431" y="79.0" fill="#000000" font-family="Verdana" font-size="12">1,1</text>
<g id="association-PREFERER">
	<path d="M 411 36 a 14 14 90 0 1 14 14 V 62 h -80 V 50 a 14 14 90 0 1 14 -14" fill="#FFFFFF" stroke="#FFFFFF" stroke-width="0"/>
	<path d="M 425 62.0 v 12 a 14 14 90 0 1 -14 14 H 359 a 14 14 90 0 1 -14 -14 V 62.0 H 80" fill="#FFFFFF" stroke="#FFFFFF" stroke-width="0"/>
	<rect x="345" y="36" width="80" height="52" fill="none" rx="14" stroke="#000000" stroke-width="1.5"/>
	<line x1="345" y1="62" x2="425" y2="62" stroke="#000000" stroke-width="1"/>
	<text x="352" y="54.6" fill="#000000" font-family="Trebuchet MS" font-size="14">PREFERER</text>
</g>

<!-- Entity MENU -->
<g id="entity-MENU">
	<g id="frame-MENU">
		<rect x="9" y="18" width="84" height="26" fill="#FFFFFF" stroke="#FFFFFF" stroke-width="0"/>
		<rect x="9" y="44.0" width="84" height="62" fill="#FFFFFF" stroke="#FFFFFF" stroke-width="0"/>
		<rect x="9" y="18" width="84" height="88" fill="none" stroke="#000000" stroke-width="1.5"/>
		<line x1="9" y1="44" x2="93" y2="44" stroke="#000000" stroke-width="1"/>
	</g>
	<text x="32" y="36.6" fill="#000000" font-family="Trebuchet MS" font-size="14">MENU</text>
	<text x="14" y="62.6" fill="#000000" font-family="Trebuchet MS" font-size="14">ref_menu</text>
	<line x1="14" y1="65.0" x2="77" y2="65.0" stroke="#000000" stroke-width="1"/>
	<text x="14" y="80.6" fill="#000000" font-family="Trebuchet MS" font-size="14">nom_menu</text>
	<text x="14" y="98.6" fill="#000000" font-family="Trebuchet MS" font-size="14">date_menu</text>
</g>

<!-- Entity PLAT -->
<g id="entity-PLAT">
	<g id="frame-PLAT">
		<rect x="241" y="18" width="72" height="26" fill="#FFFFFF" stroke="#FFFFFF" stroke-width="0"/>
		<rect x="241" y="44.0" width="72" height="62" fill="#FFFFFF" stroke="#FFFFFF" stroke-width="0"/>
		<rect x="241" y="18" width="72" height="88" fill="none" stroke="#000000" stroke-width="1.5"/>
		<line x1="241" y1="44" x2="313" y2="44" stroke="#000000" stroke-width="1"/>
	</g>
	<text x="260" y="36.6" fill="#000000" font-family="Trebuchet MS" font-size="14">PLAT</text>
	<text x="246" y="62.6" fill="#000000" font-family="Trebuchet MS" font-size="14">ref_plat</text>
	<line x1="246" y1="65.0" x2="299" y2="65.0" stroke="#000000" stroke-width="1"/>
	<text x="246" y="80.6" fill="#000000" font-family="Trebuchet MS" font-size="14">nom_plat</text>
	<text x="246" y="98.6" fill="#000000" font-family="Trebuchet MS" font-size="14">prix_plat</text>
</g>

<!-- Entity ENFANT -->
<g id="entity-ENFANT">
	<g id="frame-ENFANT">
		<rect x="457" y="9" width="110" height="26" fill="#FFFFFF" stroke="#FFFFFF" stroke-width="0"/>
		<rect x="457" y="35.0" width="110" height="80" fill="#FFFFFF" stroke="#FFFFFF" stroke-width="0"/>
		<rect x="457" y="9" width="110" height="106" fill="none" stroke="#000000" stroke-width="1.5"/>
		<line x1="457" y1="35" x2="567" y2="35" stroke="#000000" stroke-width="1"/>
	</g>
	<text x="486" y="27.6" fill="#000000" font-family="Trebuchet MS" font-size="14">ENFANT</text>
	<text x="462" y="53.6" fill="#000000" font-family="Trebuchet MS" font-size="14">ref_enfant</text>
	<line x1="462" y1="56.0" x2="531" y2="56.0" stroke="#000000" stroke-width="1"/>
	<text x="462" y="71.6" fill="#000000" font-family="Trebuchet MS" font-size="14">nom_enfant</text>
	<text x="462" y="89.6" fill="#000000" font-family="Trebuchet MS" font-size="14">prenom_enfant</text>
	<text x="462" y="107.6" fill="#000000" font-family="Trebuchet MS" font-size="14">sexe_enfant</text>
</g>
</svg>