<?xml version="1.0" standalone="no"?>
<!DOCTYPE svg PUBLIC "-//W3C//DTD SVG 1.1//EN"
"http://www.w3.org/Graphics/SVG/1.1/DTD/svg11.dtd">

<svg width="690" height="553" view_box="0 0 690 553"
xmlns="http://www.w3.org/2000/svg"
xmlns:link="http://www.w3.org/1999/xlink">\n\n<desc>Généré par Mocodo 2.3.8 le Mon, 10 Aug 2020 22:57:55</desc>

<rect id="frame" x="0" y="0" width="690" height="553" fill="none" stroke="none" stroke-width="0"/>

<!-- Association VERSER -->
<line x1="225" y1="62" x2="77" y2="62" stroke="#000000" stroke-width="1"/>
<text x="137" y="79.0" fill="#000000" font-family="Verdana" font-size="12">0,N</text>
<line x1="77" y1="211" x2="77" y2="62" stroke="#000000" stroke-width="1"/>
<text x="50.0" y="177" fill="#000000" font-family="Verdana" font-size="12">0,N</text>
<g id="association-VERSER">
	<path d="M 118 36 a 14 14 90 0 1 14 14 V 62 h -110 V 50 a 14 14 90 0 1 14 -14" fill="#FFFFFF" stroke="#FFFFFF" stroke-width="0"/>
	<path d="M 132 62.0 v 12 a 14 14 90 0 1 -14 14 H 36 a 14 14 90 0 1 -14 -14 V 62.0 H 110" fill="#FFFFFF" stroke="#FFFFFF" stroke-width="0"/>
	<rect x="22" y="36" width="110" height="52" fill="none" rx="14" stroke="#000000" stroke-width="1.5"/>
	<line x1="22" y1="62" x2="132" y2="62" stroke="#000000" stroke-width="1"/>
	<text x="53" y="54.6" fill="#000000" font-family="Trebuchet MS" font-size="14">VERSER</text>
	<text x="29" y="80.6" fill="#000000" font-family="Trebuchet MS" font-size="14">somme_versee</text>
</g>

<!-- Association RECENSER -->
<line x1="496" y1="62" x2="364" y2="62" stroke="#000000" stroke-width="1"/>
<text x="425" y="54.0" fill="#000000" font-family="Verdana" font-size="12">0,N</text>
<line x1="77" y1="211" x2="364" y2="62" stroke="#000000" stroke-width="1"/>
<text x="128" y="200.06503006341475" fill="#000000" font-family="Verdana" font-size="12">0,N</text>
<g id="association-RECENSER">
	<path d="M 396 36 a 14 14 90 0 1 14 14 V 62 h -92 V 50 a 14 14 90 0 1 14 -14" fill="#FFFFFF" stroke="#FFFFFF" stroke-width="0"/>
	<path d="M 410 62.0 v 12 a 14 14 90 0 1 -14 14 H 332 a 14 14 90 0 1 -14 -14 V 62.0 H 92" fill="#FFFFFF" stroke="#FFFFFF" stroke-width="0"/>
	<rect x="318" y="36" width="92" height="52" fill="none" rx="14" stroke="#000000" stroke-width="1.5"/>
	<line x1="318" y1="62" x2="410" y2="62" stroke="#000000" stroke-width="1"/>
	<text x="331" y="54.6" fill="#000000" font-family="Trebuchet MS" font-size="14">RECENSER</text>
	<text x="325" y="80.6" fill="#000000" font-family="Trebuchet MS" font-size="14">nb_animaux</text>
</g>

<!-- Association VIVRE_LIBRE -->
<line x1="627" y1="211" x2="627" y2="62" stroke="#000000" stroke-width="1"/>
<text x="632.0" y="168" fill="#000000" font-family="Verdana" font-size="12">0,N</text>
<line x1="496" y1="62" x2="627" y2="62" stroke="#000000" stroke-width="1"/>
<text x="545" y="79.0" fill="#000000" font-family="Verdana" font-size="12">0,N</text>
<g id="association-VIVRE_LIBRE">
	<path d="M 661 36 a 14 14 90 0 1 14 14 V 62 h -96 V 50 a 14 14 90 0 1 14 -14" fill="#FFFFFF" stroke="#FFFFFF" stroke-width="0"/>
	<path d="M 675 62.0 v 12 a 14 14 90 0 1 -14 14 H 593 a 14 14 90 0 1 -14 -14 V 62.0 H 96" fill="#FFFFFF" stroke="#FFFFFF" stroke-width="0"/>
	<rect x="579" y="36" width="96" height="52" fill="none" rx="14" stroke="#000000" stroke-width="1.5"/>
	<line x1="579" y1="62" x2="675" y2="62" stroke="#000000" stroke-width="1"/>
	<text x="586" y="54.6" fill="#000000" font-family="Trebuchet MS" font-size="14">VIVRE_LIBRE</text>
</g>

<!-- Association VISITER -->
<line x1="364" y1="211" x2="225" y2="211" stroke="#000000" stroke-width="1"/>
<text x="287" y="228.0" fill="#000000" font-family="Verdana" font-size="12">0,N</text>
<line x1="364" y1="464" x2="225" y2="211" stroke="#000000" stroke-width="1"/>
<text x="325.713542238519" y="385" fill="#000000" font-family="Verdana" font-size="12">0,N</text>
<line x1="77" y1="211" x2="225" y2="211" stroke="#000000" stroke-width="1"/>
<text x="128" y="228.0" fill="#000000" font-family="Verdana" font-size="12">0,N</text>
<g id="association-VISITER">
	<path d="M 265 185 a 14 14 90 0 1 14 14 V 211 h -108 V 199 a 14 14 90 0 1 14 -14" fill="#FFFFFF" stroke="#FFFFFF" stroke-width="0"/>
	<path d="M 279 211.0 v 12 a 14 14 90 0 1 -14 14 H 185 a 14 14 90 0 1 -14 -14 V 211.0 H 108" fill="#FFFFFF" stroke="#FFFFFF" stroke-width="0"/>
	<rect x="171" y="185" width="108" height="52" fill="none" rx="14" stroke="#000000" stroke-width="1.5"/>
	<line x1="171" y1="211" x2="279" y2="211" stroke="#000000" stroke-width="1"/>
	<text x="200" y="203.6" fill="#000000" font-family="Trebuchet MS" font-size="14">VISITER</text>
	<text x="178" y="229.6" fill="#000000" font-family="Trebuchet MS" font-size="14">bulletin_visite</text>
</g>

<!-- Association DF1 -->
<line x1="364" y1="464" x2="496" y2="211" stroke="#000000" stroke-width="1"/>
<text x="379.1162410469741" y="385" fill="#000000" font-family="Verdana" font-size="12">1,1</text>
<line x1="379.1162410469741" y1="387" x2="400.1162410469741" y2="387" stroke="#000000" stroke-width="1"/>
<line x1="496" y1="62" x2="496" y2="211" stroke="#000000" stroke-width="1"/>
<text x="501.0" y="123" fill="#000000" font-family="Verdana" font-size="12">0,N</text>
<path d="M 496.0 106.0 L 502.0 118.0 L 496.0 114.0 L 490.0 118.0 Z" fill="#000000" stroke-width="0"/>
<g id="association-DF1">
	<circle cx="496" cy="211" r="16" stroke="#000000" stroke-width="1.5" fill="#FFFFFF"/>
	<text x="487" y="214.4" fill="#000000" font-family="Trebuchet MS" font-size="14">DF</text>
</g>

<!-- Association CONTROLER -->
<line x1="77" y1="464" x2="77" y2="333" stroke="#000000" stroke-width="1"/>
<text x="82.0" y="394" fill="#000000" font-family="Verdana" font-size="12">0,N</text>
<line x1="225" y1="464" x2="77" y2="333" stroke="#000000" stroke-width="1"/>
<text x="153" y="434.7061041144174" fill="#000000" font-family="Verdana" font-size="12">0,N</text>
<line x1="77" y1="211" x2="77" y2="333" stroke="#000000" stroke-width="1"/>
<text x="50.0" y="254" fill="#000000" font-family="Verdana" font-size="12">0,N</text>
<g id="association-CONTROLER">
	<path d="M 117 307 a 14 14 90 0 1 14 14 V 333 h -108 V 321 a 14 14 90 0 1 14 -14" fill="#FFFFFF" stroke="#FFFFFF" stroke-width="0"/>
	<path d="M 131 333.0 v 12 a 14 14 90 0 1 -14 14 H 37 a 14 14 90 0 1 -14 -14 V 333.0 H 108" fill="#FFFFFF" stroke="#FFFFFF" stroke-width="0"/>
	<rect x="23" y="307" width="108" height="52" fill="none" rx="14" stroke="#000000" stroke-width="1.5"/>
	<line x1="23" y1="333" x2="131" y2="333" stroke="#000000" stroke-width="1"/>
	<text x="38" y="325.6" fill="#000000" font-family="Trebuchet MS" font-size="14">CONTROLER</text>
	<text x="30" y="351.6" fill="#000000" font-family="Trebuchet MS" font-size="14">compte_rendu</text>
</g>

<!-- Association HEBERGER -->
<line x1="364" y1="464" x2="225" y2="333" stroke="#000000" stroke-width="1"/>
<text x="282" y="422.3906311060472" fill="#000000" font-family="Verdana" font-size="12">0,N</text>
<line x1="225" y1="464" x2="225" y2="333" stroke="#000000" stroke-width="1"/>
<text x="230.0" y="376" fill="#000000" font-family="Verdana" font-size="12">0,N</text>
<line x1="77" y1="211" x2="225" y2="333" stroke="#000000" stroke-width="1"/>
<text x="87.65346378924163" y="254" fill="#000000" font-family="Verdana" font-size="12">0,N</text>
<g id="association-HEBERGER">
	<path d="M 269 307 a 14 14 90 0 1 14 14 V 333 h -116 V 321 a 14 14 90 0 1 14 -14" fill="#FFFFFF" stroke="#FFFFFF" stroke-width="0"/>
	<path d="M 283 333.0 v 12 a 14 14 90 0 1 -14 14 H 181 a 14 14 90 0 1 -14 -14 V 333.0 H 116" fill="#FFFFFF" stroke="#FFFFFF" stroke-width="0"/>
	<rect x="167" y="307" width="116" height="52" fill="none" rx="14" stroke="#000000" stroke-width="1.5"/>
	<line x1="167" y1="333" x2="283" y2="333" stroke="#000000" stroke-width="1"/>
	<text x="191" y="325.6" fill="#000000" font-family="Trebuchet MS" font-size="14">HEBERGER</text>
	<text x="174" y="351.6" fill="#000000" font-family="Trebuchet MS" font-size="14">motif_presence</text>
</g>

<!-- Association SPECIALISER -->
<line x1="496" y1="62" x2="364" y2="333" stroke="#000000" stroke-width="1"/>
<text x="475.7578641647556" y="123" fill="#000000" font-family="Verdana" font-size="12">0,N</text>
<line x1="364" y1="211" x2="364" y2="333" stroke="#000000" stroke-width="1"/>
<text x="369.0" y="299" fill="#000000" font-family="Verdana" font-size="12">0,N</text>
<g id="association-SPECIALISER">
	<path d="M 397 307 a 14 14 90 0 1 14 14 V 333 h -94 V 321 a 14 14 90 0 1 14 -14" fill="#FFFFFF" stroke="#FFFFFF" stroke-width="0"/>
	<path d="M 411 333.0 v 12 a 14 14 90 0 1 -14 14 H 331 a 14 14 90 0 1 -14 -14 V 333.0 H 94" fill="#FFFFFF" stroke="#FFFFFF" stroke-width="0"/>
	<rect x="317" y="307" width="94" height="52" fill="none" rx="14" stroke="#000000" stroke-width="1.5"/>
	<line x1="317" y1="333" x2="411" y2="333" stroke="#000000" stroke-width="1"/>
	<text x="324" y="325.6" fill="#000000" font-family="Trebuchet MS" font-size="14">SPECIALISER</text>
</g>

<!-- Association PROVENIR -->
<line x1="627" y1="211" x2="496" y2="333" stroke="#000000" stroke-width="1"/>
<text x="563" y="244.173512317321" fill="#000000" font-family="Verdana" font-size="12">0,N</text>
<line x1="364" y1="464" x2="496" y2="333" stroke="#000000" stroke-width="1"/>
<text x="424" y="419.38368884086555" fill="#000000" font-family="Verdana" font-size="12">0,1</text>
<g id="association-PROVENIR">
	<path d="M 522 307 a 14 14 90 0 1 14 14 V 333 h -80 V 321 a 14 14 90 0 1 14 -14" fill="#FFFFFF" stroke="#FFFFFF" stroke-width="0"/>
	<path d="M 536 333.0 v 12 a 14 14 90 0 1 -14 14 H 470 a 14 14 90 0 1 -14 -14 V 333.0 H 80" fill="#FFFFFF" stroke="#FFFFFF" stroke-width="0"/>
	<rect x="456" y="307" width="80" height="52" fill="none" rx="14" stroke="#000000" stroke-width="1.5"/>
	<line x1="456" y1="333" x2="536" y2="333" stroke="#000000" stroke-width="1"/>
	<text x="463" y="325.6" fill="#000000" font-family="Trebuchet MS" font-size="14">PROVENIR</text>
</g>

<!-- Association DF2 -->
<line x1="627" y1="211" x2="627" y2="333" stroke="#000000" stroke-width="1"/>
<text x="632.0" y="263" fill="#000000" font-family="Verdana" font-size="12">1,1</text>
<line x1="632.0" y1="265" x2="653.0" y2="265" stroke="#000000" stroke-width="1"/>
<line x1="627" y1="464" x2="627" y2="333" stroke="#000000" stroke-width="1"/>
<text x="632.0" y="421" fill="#000000" font-family="Verdana" font-size="12">1,N</text>
<path d="M 627.0 429.0 L 621.0 417.0 L 627.0 421.0 L 633.0 417.0 Z" fill="#000000" stroke-width="0"/>
<g id="association-DF2">
	<circle cx="627" cy="333" r="16" stroke="#000000" stroke-width="1.5" fill="#FFFFFF"/>
	<text x="618" y="336.4" fill="#000000" font-family="Trebuchet MS" font-size="14">DF</text>
</g>

<!-- Association DESCENDRE -->
<path d="M364 464 C 414.0 430.6666666666667 458.0 430.6666666666667 496 464" fill="none" stroke="#000000" stroke-width="1"/>
<text x="424" y="457.0" fill="#000000" font-family="Verdana" font-size="12">0,2</text>
<path d="M364 464 C 414.6666666666667 497.3333333333333 458.6666666666667 497.3333333333333 496 464" fill="none" stroke="#000000" stroke-width="1"/>
<text x="424" y="479.0" fill="#000000" font-family="Verdana" font-size="12">0,N</text>
<g id="association-DESCENDRE">
	<path d="M 527 438 a 14 14 90 0 1 14 14 V 464 h -90 V 452 a 14 14 90 0 1 14 -14" fill="#FFFFFF" stroke="#FFFFFF" stroke-width="0"/>
	<path d="M 541 464.0 v 12 a 14 14 90 0 1 -14 14 H 465 a 14 14 90 0 1 -14 -14 V 464.0 H 90" fill="#FFFFFF" stroke="#FFFFFF" stroke-width="0"/>
	<rect x="451" y="438" width="90" height="52" fill="none" rx="14" stroke="#000000" stroke-width="1.5"/>
	<line x1="451" y1="464" x2="541" y2="464" stroke="#000000" stroke-width="1"/>
	<text x="458" y="456.6" fill="#000000" font-family="Trebuchet MS" font-size="14">DESCENDRE</text>
</g>

<!-- Entity MEMBRE -->
<g id="entity-MEMBRE">
	<g id="frame-MEMBRE">
		<rect x="164" y="9" width="122" height="26" fill="#FFFFFF" stroke="#FFFFFF" stroke-width="0"/>
		<rect x="164" y="35.0" width="122" height="80" fill="#FFFFFF" stroke="#FFFFFF" stroke-width="0"/>
		<rect x="164" y="9" width="122" height="106" fill="none" stroke="#000000" stroke-width="1.5"/>
		<line x1="164" y1="35" x2="286" y2="35" stroke="#000000" stroke-width="1"/>
	</g>
	<text x="198" y="27.6" fill="#000000" font-family="Trebuchet MS" font-size="14">MEMBRE</text>
	<text x="169" y="53.6" fill="#000000" font-family="Trebuchet MS" font-size="14">id_membre</text>
	<line x1="169" y1="56.0" x2="243" y2="56.0" stroke="#000000" stroke-width="1"/>
	<text x="169" y="71.6" fill="#000000" font-family="Trebuchet MS" font-size="14">nom_membre</text>
	<text x="169" y="89.6" fill="#000000" font-family="Trebuchet MS" font-size="14">prenom_membre</text>
	<text x="169" y="107.6" fill="#000000" font-family="Trebuchet MS" font-size="14">adr_membre</text>
</g>

<!-- Entity ESPECE -->
<g id="entity-ESPECE">
	<g id="frame-ESPECE">
		<rect x="452" y="18" width="88" height="26" fill="#FFFFFF" stroke="#FFFFFF" stroke-width="0"/>
		<rect x="452" y="44.0" width="88" height="62" fill="#FFFFFF" stroke="#FFFFFF" stroke-width="0"/>
		<rect x="452" y="18" width="88" height="88" fill="none" stroke="#000000" stroke-width="1.5"/>
		<line x1="452" y1="44" x2="540" y2="44" stroke="#000000" stroke-width="1"/>
	</g>
	<text x="472" y="36.6" fill="#000000" font-family="Trebuchet MS" font-size="14">ESPECE</text>
	<text x="457" y="62.6" fill="#000000" font-family="Trebuchet MS" font-size="14">id_espece</text>
	<line x1="457" y1="65.0" x2="522" y2="65.0" stroke="#000000" stroke-width="1"/>
	<text x="457" y="80.6" fill="#000000" font-family="Trebuchet MS" font-size="14">nom espece</text>
	<text x="457" y="98.6" fill="#000000" font-family="Trebuchet MS" font-size="14">nb_monde</text>
</g>

<!-- Entity DATEHEURE -->
<g id="entity-DATEHEURE">
	<g id="frame-DATEHEURE">
		<rect x="31" y="185" width="92" height="26" fill="#FFFFFF" stroke="#FFFFFF" stroke-width="0"/>
		<rect x="31" y="211.0" width="92" height="26" fill="#FFFFFF" stroke="#FFFFFF" stroke-width="0"/>
		<rect x="31" y="185" width="92" height="52" fill="none" stroke="#000000" stroke-width="1.5"/>
		<line x1="31" y1="211" x2="123" y2="211" stroke="#000000" stroke-width="1"/>
	</g>
	<text x="38" y="203.6" fill="#000000" font-family="Trebuchet MS" font-size="14">DATEHEURE</text>
	<text x="36" y="229.6" fill="#000000" font-family="Trebuchet MS" font-size="14">jj/mm/aaaa</text>
	<line x1="36" y1="232.0" x2="117" y2="232.0" stroke="#000000" stroke-width="1"/>
</g>

<!-- Entity VETERINAIRE -->
<g id="entity-VETERINAIRE">
	<g id="frame-VETERINAIRE">
		<rect x="314" y="140" width="100" height="26" fill="#FFFFFF" stroke="#FFFFFF" stroke-width="0"/>
		<rect x="314" y="166.0" width="100" height="116" fill="#FFFFFF" stroke="#FFFFFF" stroke-width="0"/>
		<rect x="314" y="140" width="100" height="142" fill="none" stroke="#000000" stroke-width="1.5"/>
		<line x1="314" y1="166" x2="414" y2="166" stroke="#000000" stroke-width="1"/>
	</g>
	<text x="322" y="158.6" fill="#000000" font-family="Trebuchet MS" font-size="14">VETERINAIRE</text>
	<text x="319" y="184.6" fill="#000000" font-family="Trebuchet MS" font-size="14">id_veto</text>
	<line x1="319" y1="187.0" x2="368" y2="187.0" stroke="#000000" stroke-width="1"/>
	<text x="319" y="202.6" fill="#000000" font-family="Trebuchet MS" font-size="14">nom_veto</text>
	<text x="319" y="220.6" fill="#000000" font-family="Trebuchet MS" font-size="14">prenom_veto</text>
	<text x="319" y="238.6" fill="#000000" font-family="Trebuchet MS" font-size="14">adr_veto</text>
	<text x="319" y="256.6" fill="#000000" font-family="Trebuchet MS" font-size="14">tel_veto</text>
	<text x="319" y="274.6" fill="#000000" font-family="Trebuchet MS" font-size="14">tel_port_veto</text>
</g>

<!-- Entity PAYS -->
<g id="entity-PAYS">
	<g id="frame-PAYS">
		<rect x="590" y="176" width="74" height="26" fill="#FFFFFF" stroke="#FFFFFF" stroke-width="0"/>
		<rect x="590" y="202.0" width="74" height="44" fill="#FFFFFF" stroke="#FFFFFF" stroke-width="0"/>
		<rect x="590" y="176" width="74" height="70" fill="none" stroke="#000000" stroke-width="1.5"/>
		<line x1="590" y1="202" x2="664" y2="202" stroke="#000000" stroke-width="1"/>
	</g>
	<text x="610" y="194.6" fill="#000000" font-family="Trebuchet MS" font-size="14">PAYS</text>
	<text x="595" y="220.6" fill="#000000" font-family="Trebuchet MS" font-size="14">id_pays</text>
	<line x1="595" y1="223.0" x2="644" y2="223.0" style="fill:none;stroke:#000000;stroke-width:1;stroke-dasharray:4;"/>
	<text x="595" y="238.6" fill="#000000" font-family="Trebuchet MS" font-size="14">nom_pays</text>
</g>

<!-- Entity CONTROLEUR -->
<g id="entity-CONTROLEUR">
	<g id="frame-CONTROLEUR">
		<rect x="9" y="402" width="136" height="26" fill="#FFFFFF" stroke="#FFFFFF" stroke-width="0"/>
		<rect x="9" y="428.0" width="136" height="98" fill="#FFFFFF" stroke="#FFFFFF" stroke-width="0"/>
		<rect x="9" y="402" width="136" height="124" fill="none" stroke="#000000" stroke-width="1.5"/>
		<line x1="9" y1="428" x2="145" y2="428" stroke="#000000" stroke-width="1"/>
	</g>
	<text x="33" y="420.6" fill="#000000" font-family="Trebuchet MS" font-size="14">CONTROLEUR</text>
	<text x="14" y="446.6" fill="#000000" font-family="Trebuchet MS" font-size="14">id_controleur</text>
	<line x1="14" y1="449.0" x2="102" y2="449.0" stroke="#000000" stroke-width="1"/>
	<text x="14" y="464.6" fill="#000000" font-family="Trebuchet MS" font-size="14">nom_controleur</text>
	<text x="14" y="482.6" fill="#000000" font-family="Trebuchet MS" font-size="14">prenom_controleur</text>
	<text x="14" y="500.6" fill="#000000" font-family="Trebuchet MS" font-size="14">adr_controleur</text>
	<text x="14" y="518.6" fill="#000000" font-family="Trebuchet MS" font-size="14">tel_controleur</text>
</g>

<!-- Entity PARC -->
<g id="entity-PARC">
	<g id="frame-PARC">
		<rect x="180" y="384" width="90" height="26" fill="#FFFFFF" stroke="#FFFFFF" stroke-width="0"/>
		<rect x="180" y="410.0" width="90" height="134" fill="#FFFFFF" stroke="#FFFFFF" stroke-width="0"/>
		<rect x="180" y="384" width="90" height="160" fill="none" stroke="#000000" stroke-width="1.5"/>
		<line x1="180" y1="410" x2="270" y2="410" stroke="#000000" stroke-width="1"/>
	</g>
	<text x="208" y="402.6" fill="#000000" font-family="Trebuchet MS" font-size="14">PARC</text>
	<text x="185" y="428.6" fill="#000000" font-family="Trebuchet MS" font-size="14">id_parc</text>
	<line x1="185" y1="431.0" x2="234" y2="431.0" stroke="#000000" stroke-width="1"/>
	<text x="185" y="446.6" fill="#000000" font-family="Trebuchet MS" font-size="14">nom_parc</text>
	<text x="185" y="464.6" fill="#000000" font-family="Trebuchet MS" font-size="14">adr_parc</text>
	<text x="185" y="482.6" fill="#000000" font-family="Trebuchet MS" font-size="14">tel_parc</text>
	<text x="185" y="500.6" fill="#000000" font-family="Trebuchet MS" font-size="14">superficie</text>
	<text x="185" y="518.6" fill="#000000" font-family="Trebuchet MS" font-size="14">date_entree</text>
	<text x="185" y="536.6" fill="#000000" font-family="Trebuchet MS" font-size="14">date_exclu</text>
</g>

<!-- Entity ANIMAL -->
<g id="entity-ANIMAL">
	<g id="frame-ANIMAL">
		<rect x="309" y="393" width="110" height="26" fill="#FFFFFF" stroke="#FFFFFF" stroke-width="0"/>
		<rect x="309" y="419.0" width="110" height="116" fill="#FFFFFF" stroke="#FFFFFF" stroke-width="0"/>
		<rect x="309" y="393" width="110" height="142" fill="none" stroke="#000000" stroke-width="1.5"/>
		<line x1="309" y1="419" x2="419" y2="419" stroke="#000000" stroke-width="1"/>
	</g>
	<text x="339" y="411.6" fill="#000000" font-family="Trebuchet MS" font-size="14">ANIMAL</text>
	<text x="314" y="437.6" fill="#000000" font-family="Trebuchet MS" font-size="14">ref_animal</text>
	<line x1="314" y1="440.0" x2="385" y2="440.0" style="fill:none;stroke:#000000;stroke-width:1;stroke-dasharray:4;"/>
	<text x="314" y="455.6" fill="#000000" font-family="Trebuchet MS" font-size="14">nom_animal</text>
	<text x="314" y="473.6" fill="#000000" font-family="Trebuchet MS" font-size="14">sexe</text>
	<text x="314" y="491.6" fill="#000000" font-family="Trebuchet MS" font-size="14">date_naissance</text>
	<text x="314" y="509.6" fill="#000000" font-family="Trebuchet MS" font-size="14">date_deces</text>
	<text x="314" y="527.6" fill="#000000" font-family="Trebuchet MS" font-size="14">cause_deces</text>
</g>

<!-- Entity CONTINENT -->
<g id="entity-CONTINENT">
	<g id="frame-CONTINENT">
		<rect x="573" y="429" width="108" height="26" fill="#FFFFFF" stroke="#FFFFFF" stroke-width="0"/>
		<rect x="573" y="455.0" width="108" height="44" fill="#FFFFFF" stroke="#FFFFFF" stroke-width="0"/>
		<rect x="573" y="429" width="108" height="70" fill="none" stroke="#000000" stroke-width="1.5"/>
		<line x1="573" y1="455" x2="681" y2="455" stroke="#000000" stroke-width="1"/>
	</g>
	<text x="589" y="447.6" fill="#000000" font-family="Trebuchet MS" font-size="14">CONTINENT</text>
	<text x="578" y="473.6" fill="#000000" font-family="Trebuchet MS" font-size="14">id_continent</text>
	<line x1="578" y1="476.0" x2="660" y2="476.0" stroke="#000000" stroke-width="1"/>
	<text x="578" y="491.6" fill="#000000" font-family="Trebuchet MS" font-size="14">nom_continent</text>
</g>
</svg>